<svg width="35" height="33" viewBox="0 0 35 33" fill="none" xmlns="http://www.w3.org/2000/svg">
<path d="M22.6368 15.4924C22.4956 15.2952 22.3062 15.1966 22.0684 15.1966H6.93274L6.52195 14.1271C6.41793 13.7765 6.27675 13.477 6.09842 13.2286C5.92009 12.9803 5.73062 12.8049 5.53 12.7027C5.32938 12.6004 5.15476 12.531 5.00616 12.4945C4.85755 12.458 4.70894 12.4397 4.56033 12.4397H1.50645C1.31326 12.4397 1.1498 12.5054 1.01605 12.6369C0.882303 12.7684 0.81543 12.9364 0.81543 13.141C0.81543 13.2578 0.845151 13.3711 0.904594 13.4806C0.964037 13.5902 1.04949 13.6742 1.16094 13.7326C1.2724 13.7911 1.38757 13.8203 1.50645 13.8203H4.56033C4.61978 13.8203 4.6755 13.8276 4.72752 13.8422C4.77953 13.8568 4.85012 13.9189 4.93928 14.0285C5.02845 14.1381 5.10275 14.3024 5.16219 14.5216L8.35937 23.3005C8.3891 23.3882 8.43739 23.4722 8.50427 23.5525C8.57114 23.6329 8.64916 23.695 8.73832 23.7388C8.82749 23.7826 8.92408 23.8045 9.02811 23.8045H18.6579C18.8065 23.8045 18.9439 23.7607 19.0702 23.673C19.1966 23.5854 19.282 23.4758 19.3266 23.3443L22.7371 16.1389C22.8114 15.9051 22.778 15.6896 22.6368 15.4924ZM18.1675 22.402H9.58538L7.31169 16.5991H21.043L18.1675 22.402ZM16.882 24.565C16.3916 24.565 15.9718 24.7367 15.6226 25.08C15.2733 25.4234 15.0987 25.8361 15.0987 26.3182C15.0987 26.8003 15.2733 27.2131 15.6226 27.5564C15.9718 27.8997 16.3916 28.0714 16.882 28.0714C17.3724 28.0714 17.7922 27.8997 18.1415 27.5564C18.4907 27.2131 18.6653 26.8003 18.6653 26.3182C18.6653 25.8361 18.4907 25.4234 18.1415 25.08C17.7922 24.7367 17.3724 24.565 16.882 24.565ZM10.4622 24.565C10.1352 24.565 9.8343 24.6454 9.55938 24.8061C9.28445 24.9668 9.06897 25.1787 8.91294 25.4416C8.7569 25.7046 8.67888 25.9968 8.67888 26.3182C8.67888 26.8003 8.85349 27.2131 9.20272 27.5564C9.55195 27.8997 9.97176 28.0714 10.4622 28.0714C10.9526 28.0714 11.3724 27.8997 11.7216 27.5564C12.0708 27.2131 12.2455 26.8003 12.2455 26.3182C12.2455 26.2013 12.2343 26.0845 12.212 25.9676C12.1897 25.8507 12.1563 25.7411 12.1117 25.6389C12.0671 25.5366 12.0114 25.438 11.9445 25.343C11.8777 25.2481 11.8033 25.1604 11.7216 25.08C11.6399 24.9997 11.5507 24.9266 11.4541 24.8609C11.3575 24.7951 11.2572 24.7404 11.1532 24.6965C11.0492 24.6527 10.9377 24.6198 10.8188 24.5979C10.6999 24.576 10.5811 24.565 10.4622 24.565Z" fill="#3F4E65"/>
<circle cx="23.5" cy="11.5" r="10" fill="#FFC85E" stroke="white" stroke-width="3"/>
<path d="M23.4818 15.0994C22.9515 15.0994 22.4792 15.0083 22.0649 14.826C21.653 14.6413 21.3274 14.388 21.0883 14.0661C20.8516 13.7417 20.7297 13.3677 20.7226 12.9439H22.2709C22.2803 13.1214 22.3383 13.2777 22.4449 13.4126C22.5538 13.5452 22.6982 13.6482 22.8781 13.7216C23.058 13.795 23.2604 13.8317 23.4854 13.8317C23.7197 13.8317 23.9269 13.7902 24.1068 13.7074C24.2867 13.6245 24.4276 13.5097 24.5294 13.3629C24.6312 13.2161 24.6821 13.0469 24.6821 12.8551C24.6821 12.661 24.6276 12.4893 24.5187 12.3402C24.4122 12.1887 24.2583 12.0703 24.0571 11.9851C23.8582 11.8999 23.6215 11.8572 23.3469 11.8572H22.6686V10.728H23.3469C23.5789 10.728 23.7836 10.6877 23.9612 10.6072C24.1411 10.5268 24.2808 10.4155 24.3802 10.2734C24.4797 10.129 24.5294 9.96094 24.5294 9.76918C24.5294 9.58688 24.4856 9.42708 24.398 9.28977C24.3128 9.15009 24.192 9.04119 24.0358 8.96307C23.8819 8.88494 23.702 8.84588 23.496 8.84588C23.2877 8.84588 23.0971 8.88376 22.9243 8.95952C22.7515 9.03291 22.613 9.13826 22.5088 9.27557C22.4046 9.41288 22.349 9.57386 22.3419 9.75852H20.8682C20.8753 9.33949 20.9948 8.97017 21.2268 8.65057C21.4588 8.33097 21.7713 8.0812 22.1643 7.90128C22.5597 7.71899 23.0059 7.62784 23.5031 7.62784C24.005 7.62784 24.4442 7.71899 24.8206 7.90128C25.197 8.08357 25.4894 8.32978 25.6977 8.63991C25.9084 8.94768 26.0126 9.29332 26.0102 9.67685C26.0126 10.084 25.8859 10.4238 25.6302 10.696C25.3769 10.9683 25.0467 11.1411 24.6395 11.2145V11.2713C25.1745 11.34 25.5817 11.5258 25.8611 11.8288C26.1428 12.1295 26.2825 12.5059 26.2801 12.9581C26.2825 13.3724 26.1629 13.7405 25.9214 14.0625C25.6823 14.3845 25.3521 14.6378 24.9307 14.8224C24.5093 15.0071 24.0263 15.0994 23.4818 15.0994Z" fill="white"/>
</svg>
